<svg xmlns="http://www.w3.org/2000/svg" viewBox="0 0 302.02 80.17"><g id="Layer_2" data-name="Layer 2"><g id="Layer_2-2" data-name="Layer 2"><path d="M73.63,22.93c0,13.32-11.3,22.12-20.83,22.12-5.81,0-8.88-2.18-8.88-3.63,0-.81,1.13-2.75,2-2.75s1.77.49,3.31.49c5.89,0,8.88-8.8,8.88-18.81,0-9-1.86-11.79-4.28-11.79C45.86,8.56,39,36.49,39,49.65c0,6.14,1,8.72,1,10.82S36.41,65,33.18,65c-4.12,0-7.67-5.17-7.67-17.28,0-13.56,1.86-24.38,1.86-32.29s-1.86-9.61-4.28-9.61c-4.92,0-10,10-10,20.19,0,5,2.58,7,4.44,7s2.42-.73,3-.73a2.82,2.82,0,0,1,1.77,2.18c0,.89-3.71,4.44-8.23,4.44-6.78,0-14-4.27-14-14.85C0,9.45,12.59,0,21.72,0c9.93,0,16,4.92,16,20.83.16-1,4.6-20.59,16.8-20.59C64.1.24,73.63,8,73.63,22.93Z"/><path d="M98.5,30c0,1.38-1.86,1.86-1.86,2.18s.32.33,1.45.57c1.54.32,7,.89,7,3.39s-1.22,6.38-1.22,11.62.57,5.9,1.62,5.9c1.37,0,4-6.7,5.33-10.5.56-1.45,1.05-2.34,1.69-2.34s.81.41.81,1.21c0,1-.4,2-.4,2.83a31.77,31.77,0,0,1,.48,5.57c0,4-3.23,11-11.22,11s-10.66-6.06-10.66-6.06C89,59.18,86.47,62,82.19,62,75,62,70.4,55.14,70.4,48.36c0-11.87,8.32-22.28,16.07-22.28C90.75,26.08,98.5,28.66,98.5,30ZM82,52.07c0,1.7.88,2.67,2.34,2.67,3.15,0,8.8-13,8.8-19.54C85.74,38,82,47.88,82,52.07Z"/><path d="M117.71,28.66c2.91,0,8.88,2.1,8.88,6.46s-1.21,7.27-1.21,12.27.56,5.81,1.78,5.81,3.87-1.85,5.32-10.65,1.78-10.17,1.94-11.63.89-2.34,1.94-2.34c2,0,11.95,1.7,11.95,5.17S148,40.37,148,45.62s1.3,7.26,2.59,7.26,3.47-4,3.47-12.19-1.45-10.09-1.45-12.51c0-1.38,1.45-2.51,3.63-2.51A7.16,7.16,0,0,1,162,28c4.85,1,6.7,3.87,6.7,8.23,0,7.59-6.62,24.38-15.09,24.38a16.39,16.39,0,0,1-4.93,1.29c-6.21,0-11.06-5.49-11.06-5.49s-4,6.46-11.46,6.46c-9.53,0-16.07-6.7-16.07-15.82,0-6.38,2.1-12,2.1-14.45,0-1.38-.4-1.46-.4-2.26S114.8,28.66,117.71,28.66Z"/><path d="M173.82,26c2.82,0,11.14,2.34,11.14,5.57s-.56,6.54-.56,8.64c1.45-2.75,4.76-12.76,12.35-12.76s13.56,7.35,13.56,19A15.37,15.37,0,0,1,195.7,62.33c-5,0-11.14-3-11.14-3a30.11,30.11,0,0,0-.73,7.43c0,4.84,1.21,7.83,1.21,9.28s-4.12,4.12-7.51,4.12-8.15-6.62-8.15-22.28S172,33.5,172,29c0-.88-.32-1.77-.32-2.26C171.64,26,172.53,26,173.82,26Zm12.59,26.48c0,1.05.49,2.5,3.48,2.5s6.37-5.09,6.37-10.74-1.29-9.85-2.58-9.85C191,34.39,186.41,51.43,186.41,52.48Z"/><path d="M240.83,30c0,1.38-1.86,1.86-1.86,2.18s.32.33,1.45.57c1.54.32,7,.89,7,3.39s-1.21,6.38-1.21,11.62.56,5.9,1.61,5.9c1.37,0,4-6.7,5.33-10.5.57-1.45,1-2.34,1.7-2.34s.8.41.8,1.21c0,1-.4,2-.4,2.83a31.77,31.77,0,0,1,.48,5.57c0,4-3.22,11-11.22,11s-10.65-6.06-10.65-6.06c-2.59,3.8-5.09,6.62-9.37,6.62-7.19,0-11.79-6.86-11.79-13.64,0-11.87,8.32-22.28,16.07-22.28C233.08,26.08,240.83,28.66,240.83,30Zm-16.47,22c0,1.7.89,2.67,2.34,2.67,3.15,0,8.8-13,8.8-19.54C228.07,38,224.36,47.88,224.36,52.07Z"/><path d="M256.73,9.45c2.67,0,4.69-1.13,8.08-1.13s4.44,1.45,4.44,4.19c0,3.8-3.15,13.89-3.15,29.55,0,8.4,2.1,10.74,4.68,10.74,1.53,0,4.84-6.13,5.81-8.31s1.21-2.91,1.86-2.91.73,2.1,1.53,2.66a2.45,2.45,0,0,1,.89,2.1c0,1.7-1,3.31-2,5.33-2,3.79-6.46,10.17-13.16,10.17-9.2,0-13.16-8.23-13.16-20.83,0-14.61,2.59-26.48,2.59-30C255.12,9.85,255.6,9.45,256.73,9.45Z"/><path d="M291.45,16.07c0,5.08-1.62,8.39-1.62,10.81,0,6.46,12.19,11,12.19,23.82,0,6.38-5.81,11.22-13.72,11.22-6.7,0-9.29-3.87-10.58-3.87-2.5,1.86-4.52,3.23-6.46,3.23a2.7,2.7,0,0,1-2.66-2.34c0-1.13,1.61-2.67,3-4.85,4.76-7.26,9.52-21.88,9.52-24.46s-1.69-3.15-1.69-7.35,2.18-9.85,4.44-9.85C285.63,12.43,291.45,13.16,291.45,16.07ZM280.63,53.12c0,1.05,1.05,1.7,2.66,1.7,2.26,0,4.52-2.42,4.52-4.93a11.8,11.8,0,0,0-2.9-7.67S280.63,52,280.63,53.12Z"/></g></g></svg>